HIERARCHY
ROOT hip
{
  OFFSET 0 0 0
  CHANNELS 6 Xposition Yposition Zposition Zrotation Yrotation Xrotation
  JOINT abdomen
  {
    OFFSET 0 20.6881 -0.73152
    CHANNELS 3 Zrotation Xrotation Yrotation
    JOINT chest
    {
      OFFSET 0 11.7043 -0.48768
      CHANNELS 3 Zrotation Xrotation Yrotation
      JOINT neck
      {
        OFFSET 0 22.1894 -2.19456
        CHANNELS 3 Zrotation Xrotation Yrotation
        JOINT head
        {
          OFFSET -0.24384 7.07133 1.2192
          CHANNELS 3 Zrotation Xrotation Yrotation
          JOINT leftEye
          {
            OFFSET 4.14528 8.04674 8.04672
            CHANNELS 3 Zrotation Xrotation Yrotation
            End Site
            {
              OFFSET 1 0 0
            }
          }
          JOINT rightEye
          {
            OFFSET -3.6576 8.04674 8.04672
            CHANNELS 3 Zrotation Xrotation Yrotation
            End Site
            {
              OFFSET 1 0 0
            }
          }
        }
      }
      JOINT rCollar
      {
        OFFSET -2.68224 19.2634 -4.8768
        CHANNELS 3 Zrotation Xrotation Yrotation
        JOINT rShldr
        {
          OFFSET -8.77824 -1.95073 1.46304
          CHANNELS 3 Zrotation Xrotation Yrotation
          JOINT rForeArm
          {
            OFFSET -28.1742 -1.7115 0.48768
            CHANNELS 3 Zrotation Xrotation Yrotation
            JOINT rHand
            {
              OFFSET -22.5879 0.773209 7.07136
              CHANNELS 3 Zrotation Xrotation Yrotation
              JOINT rThumb1
              {
                OFFSET -1.2192 -0.487915 3.41376
                CHANNELS 3 Zrotation Xrotation Yrotation
                JOINT rThumb2
                {
                  OFFSET -3.37035 -0.52449 3.41376
                  CHANNELS 3 Zrotation Xrotation Yrotation
                  End Site
                  {
                    OFFSET -1.78271 -1.18214 1.43049
                  }
                }
              }
              JOINT rIndex1
              {
                OFFSET -7.75947 0.938293 5.60832
                CHANNELS 3 Zrotation Xrotation Yrotation
                JOINT rIndex2
                {
                  OFFSET -2.54057 -0.884171 1.56538
                  CHANNELS 3 Zrotation Xrotation Yrotation
                  End Site
                  {
                    OFFSET -1.62519 -0.234802 1.16502
                  }
                }
              }
              JOINT rMid1
              {
                OFFSET -8.24714 1.18213 3.41376
                CHANNELS 3 Zrotation Xrotation Yrotation
                JOINT rMid2
                {
                  OFFSET -3.10165 -0.590103 1.0647
                  CHANNELS 3 Zrotation Xrotation Yrotation
                  End Site
                  {
                    OFFSET -2.48547 -0.328903 0.83742
                  }
                }
              }
              JOINT rRing1
              {
                OFFSET -8.82822 0.546677 1.51678
                CHANNELS 3 Zrotation Xrotation Yrotation
                JOINT rRing2
                {
                  OFFSET -2.60934 -0.819778 -0.0198488
                  CHANNELS 3 Zrotation Xrotation Yrotation
                  End Site
                  {
                    OFFSET -2.33842 -0.294052 0.168128
                  }
                }
              }
              JOINT rPinky1
              {
                OFFSET -8.27202 -0.0477905 -0.4584
                CHANNELS 3 Zrotation Xrotation Yrotation
                JOINT rPinky2
                {
                  OFFSET -1.82734 -0.647385 -0.700984
                  CHANNELS 3 Zrotation Xrotation Yrotation
                  End Site
                  {
                    OFFSET -1.69225 -0.51767 -0.607171
                  }
                }
              }
            }
          }
        }
      }
      JOINT lCollar
      {
        OFFSET 2.68224 19.2634 -4.8768
        CHANNELS 3 Zrotation Xrotation Yrotation
        JOINT lShldr
        {
          OFFSET 8.77824 -1.95073 1.46304
          CHANNELS 3 Zrotation Xrotation Yrotation
          JOINT lForeArm
          {
            OFFSET 28.1742 -1.7115 0.48768
            CHANNELS 3 Zrotation Xrotation Yrotation
            JOINT lHand
            {
              OFFSET 22.5879 0.773209 7.07136
              CHANNELS 3 Zrotation Xrotation Yrotation
              JOINT lThumb1
              {
                OFFSET 1.2192 -0.487915 3.41376
                CHANNELS 3 Zrotation Xrotation Yrotation
                JOINT lThumb2
                {
                  OFFSET 3.37035 -0.52449 3.41376
                  CHANNELS 3 Zrotation Xrotation Yrotation
                  End Site
                  {
                    OFFSET 1.78271 -1.18214 1.43049
                  }
                }
              }
              JOINT lIndex1
              {
                OFFSET 7.75947 0.938293 5.60832
                CHANNELS 3 Zrotation Xrotation Yrotation
                JOINT lIndex2
                {
                  OFFSET 2.54057 -0.884171 1.56538
                  CHANNELS 3 Zrotation Xrotation Yrotation
                  End Site
                  {
                    OFFSET 1.62519 -0.234802 1.16502
                  }
                }
              }
              JOINT lMid1
              {
                OFFSET 8.24714 1.18213 3.41376
                CHANNELS 3 Zrotation Xrotation Yrotation
                JOINT lMid2
                {
                  OFFSET 3.10165 -0.590103 1.0647
                  CHANNELS 3 Zrotation Xrotation Yrotation
                  End Site
                  {
                    OFFSET 2.48547 -0.328903 0.83742
                  }
                }
              }
              JOINT lRing1
              {
                OFFSET 8.82822 0.546677 1.51678
                CHANNELS 3 Zrotation Xrotation Yrotation
                JOINT lRing2
                {
                  OFFSET 2.60934 -0.819778 -0.0198488
                  CHANNELS 3 Zrotation Xrotation Yrotation
                  End Site
                  {
                    OFFSET 2.33842 -0.294052 0.168128
                  }
                }
              }
              JOINT lPinky1
              {
                OFFSET 8.27202 -0.0477905 -0.4584
                CHANNELS 3 Zrotation Xrotation Yrotation
                JOINT lPinky2
                {
                  OFFSET 1.82734 -0.647385 -0.700984
                  CHANNELS 3 Zrotation Xrotation Yrotation
                  End Site
                  {
                    OFFSET 1.69225 -0.51767 -0.607171
                  }
                }
              }
            }
          }
        }
      }
    }
  }
  JOINT rButtock
  {
    OFFSET -8.77824 4.35084 1.2192
    CHANNELS 3 Zrotation Xrotation Yrotation
    JOINT rThigh
    {
      OFFSET 0 -1.70687 -2.19456
      CHANNELS 3 Zrotation Xrotation Yrotation
      JOINT rShin
      {
        OFFSET 0 -36.8199 0.73152
        CHANNELS 3 Zrotation Xrotation Yrotation
        JOINT rFoot
        {
          OFFSET 0.73152 -45.1104 -5.12064
          CHANNELS 3 Zrotation Xrotation Yrotation
          End Site
          {
            OFFSET -1.1221 -3.69964 12.103
          }
        }
      }
    }
  }
  JOINT lButtock
  {
    OFFSET 8.77824 4.35084 1.2192
    CHANNELS 3 Zrotation Xrotation Yrotation
    JOINT lThigh
    {
      OFFSET 0 -1.70687 -2.19456
      CHANNELS 3 Zrotation Xrotation Yrotation
      JOINT lShin
      {
        OFFSET 0 -36.8199 0.73152
        CHANNELS 3 Zrotation Xrotation Yrotation
        JOINT lFoot
        {
          OFFSET -0.73152 -45.1104 -5.12064
          CHANNELS 3 Zrotation Xrotation Yrotation
          End Site
          {
            OFFSET 1.1221 -3.69964 12.103
          }
        }
      }
    }
  }
}
MOTION
Frames:	4
Frame Time:	0.00833333
221.291 85.1731 4.21306 0.0 0.0 0.0 0.512933 -0.00341815 0.0146932 0.141687 -0.005402 0.0245504 -2.43004e-14 -1.59028e-15 -8.07562e-17 -7.30099e-14 3.18055e-15 -2.50034e-16 -0.0 0.0 0.0 -0.0 0.0 0.0 -1.21772e-14 7.76503e-18 1.49089e-16 -2.54151e-13 -3.72721e-17 -9.93923e-16 -4.39036e-12 1.32351e-12 1.90833e-14 -5.02966e-11 -1.27563e-12 -2.76708e-13 -1.18634e-10 1.06682e-13 -5.08889e-13 -2.04889e-10 1.90833e-13 -8.8817e-13 -1.18627e-10 1.10524e-13 -5.1843e-13 7.73091 5.47488 0.417314 -1.18634e-10 1.07244e-13 -5.12069e-13 2.90554 0.965183 0.102902 -1.18623e-10 1.07344e-13 -5.08889e-13 10.2786 0.731801 0.0259123 -1.18639e-10 1.07741e-13 -4.99347e-13 2.22167 -0.733487 -0.20892 -1.22741e-14 7.95915e-18 -2.48481e-16 -2.55682e-13 1.73937e-16 -2.18663e-15 -4.39652e-12 -1.30721e-12 2.8625e-14 -5.02821e-11 1.35631e-12 -2.63986e-13 -1.18612e-10 1.05848e-13 -4.96167e-13 -2.04833e-10 1.81292e-13 -8.59545e-13 -1.18616e-10 1.06549e-13 -4.86625e-13 -7.73091 5.47488 -0.417314 -1.18612e-10 1.05952e-13 -5.05708e-13 -2.90554 0.965183 -0.102902 -1.18617e-10 1.06449e-13 -5.02528e-13 -10.2786 0.731801 -0.0259123 -1.18611e-10 1.06946e-13 -5.12069e-13 -2.22167 -0.733487 0.20892 -2.03217e-16 0.0 -3.88251e-19 0.859986 -4.41147 -0.0729697 -0.00213109 2.43942 -0.0112519 -0.47442 1.97258 0.0938348 2.03217e-16 0.0 3.88251e-19 -0.0777135 -2.42095 0.0232548 0.00766797 -1.16604 0.0660011 0.465802 3.58744 -0.125219
213.138 82.7158 -2.92779 -141.901 -87.1661 138.761 1.54253 4.37487 0.454449 0.567799 0.371842 0.173839 1.04078 1.48556 1.03041 -1.08231 -0.897821 1.66818 -0.0 0.0 0.0 -0.0 0.0 0.0 -5.46735e-14 -5.51328e-13 -1.01337e-14 21.1978 8.51508 0.349971 -5.00456 -2.45541 7.60988 0.0530103 -5.11201 -0.708165 1.50254e-10 1.25984e-10 4.34976e-10 2.55166e-10 2.15792e-10 7.55111e-10 1.5026e-10 1.25986e-10 4.34969e-10 7.73091 5.47488 0.417314 1.50254e-10 1.25983e-10 4.34974e-10 2.90554 0.965183 0.102902 1.50263e-10 1.25983e-10 4.34979e-10 10.2786 0.731801 0.0259123 1.5025e-10 1.25984e-10 4.34989e-10 2.22167 -0.733487 -0.20892 -5.48123e-14 -5.51328e-13 -1.05065e-14 -22.6077 5.70546 -0.0513925 5.04161 -2.48196 -7.65628 9.83546e-05 -0.0759144 0.0106681 6.50845e-11 1.41882e-10 -3.93237e-10 1.11026e-10 2.44646e-10 -6.8068e-10 6.5082e-11 1.41884e-10 -3.93231e-10 -7.73091 5.47488 -0.417314 6.50855e-11 1.41883e-10 -3.93245e-10 -2.90554 0.965183 -0.102902 6.50806e-11 1.41883e-10 -3.93243e-10 -10.2786 0.731801 -0.0259123 6.50864e-11 1.41884e-10 -3.93253e-10 -2.22167 -0.733487 0.20892 -2.03217e-16 0.0 -3.88251e-19 4.32252 -6.74681 2.60001 0.0681382 12.5873 0.206279 -1.63767 -6.68433 -6.45149 2.03217e-16 0.0 3.88251e-19 0.477123 -10.6823 -0.0892991 -0.0458092 18.4486 -0.205604 0.7187 0.681767 2.55685
211.873 82.6685 -2.88039 -139.512 -87.3828 136.235 2.56552 9.00931 0.913708 1.02938 0.773922 0.328736 2.08281 3.05495 2.12975 -2.18252 -1.84818 3.44797 -0.0 0.0 0.0 -0.0 0.0 0.0 -1.01706e-13 -1.15868e-12 -2.15402e-14 43.486 17.5107 0.749779 -9.58105 -4.89751 15.6824 -0.0304227 -10.5013 -1.47407 4.45466e-10 2.66224e-10 9.23663e-10 7.60151e-10 4.55977e-10 1.60341e-09 4.4547e-10 2.66224e-10 9.23659e-10 7.73091 5.47488 0.417314 4.45466e-10 2.66222e-10 9.23662e-10 2.90554 0.965183 0.102902 4.45472e-10 2.66222e-10 9.23668e-10 10.2786 0.731801 0.0259123 4.45461e-10 2.66223e-10 9.23679e-10 2.22167 -0.733487 -0.20892 -1.01893e-13 -1.15868e-12 -2.18881e-14 -46.4986 11.7537 -0.12823 9.67049 -4.9688 -15.8167 0.000309501 -0.182996 0.025716 2.68175e-10 2.95962e-10 -8.37735e-10 4.60204e-10 5.10285e-10 -1.45007e-09 2.68174e-10 2.95966e-10 -8.37731e-10 -7.73091 5.47488 -0.417314 2.68177e-10 2.95965e-10 -8.37739e-10 -2.90554 0.965183 -0.102902 2.68172e-10 2.95965e-10 -8.37739e-10 -10.2786 0.731801 -0.0259123 2.68177e-10 2.95965e-10 -8.37749e-10 -2.22167 -0.733487 0.20892 -2.03217e-16 0.0 -3.88251e-19 8.22954 -9.26768 5.45754 0.0504604 23.3738 0.461404 -5.06006 -15.4739 -13.7766 2.03217e-16 0.0 3.88251e-19 1.04591 -19.3808 -0.169535 0.151735 39.3599 -0.610697 1.27597 -2.32526 5.3789
210.604 82.6807 -2.84618 -141.348 -87.4736 137.873 3.39549 13.1283 1.36569 1.41413 1.1263 0.472498 2.9617 4.45091 3.09955 -3.09017 -2.68433 5.00944 -0.0 0.0 0.0 -0.0 0.0 0.0 -1.39666e-13 -1.654e-12 -3.06994e-14 63.2525 25.5412 1.15082 -13.1028 -6.84757 22.9818 -0.23187 -15.3265 -2.19411 6.88031e-10 3.77738e-10 1.30595e-09 1.17528e-09 6.46993e-10 2.26711e-09 6.88034e-10 3.77737e-10 1.30595e-09 7.73091 5.47488 0.417314 6.88031e-10 3.77735e-10 1.30595e-09 2.90554 0.965183 0.102902 6.88035e-10 3.77735e-10 1.30595e-09 10.2786 0.731801 0.0259123 6.88027e-10 3.77737e-10 1.30597e-09 2.22167 -0.733487 -0.20892 -1.39889e-13 -1.654e-12 -3.10224e-14 -67.7913 17.1163 -0.160523 13.182 -6.91521 -23.125 0.000379873 -0.227743 0.0320046 4.32478e-10 4.25433e-10 -1.17872e-09 7.42745e-10 7.33576e-10 -2.04032e-09 4.32477e-10 4.25438e-10 -1.17872e-09 -7.73091 5.47488 -0.417314 4.3248e-10 4.25437e-10 -1.17872e-09 -2.90554 0.965183 -0.102902 4.32476e-10 4.25436e-10 -1.17872e-09 -10.2786 0.731801 -0.0259123 4.32481e-10 4.25437e-10 -1.17873e-09 -2.22167 -0.733487 0.20892 -2.03217e-16 0.0 -3.88251e-19 11.9106 -11.3284 8.04931 -0.0604963 32.8811 0.745954 -10.1735 -22.6745 -21.1101 2.03217e-16 0.0 3.88251e-19 1.47921 -27.2046 -0.348246 0.787921 57.6712 -1.341 2.03988 -5.07853 7.95137
